PathFileType	4	(X/Y/Z)	/Users/itak/Documents/Research/Walk-IL/dataset/trc/00066_00006.trc
DataRate	CameraRate	NumFrames	NumMarkers	Units	OrigDataRate	OrigDataStartFrame	OrigNumFrames
100.000000	100.000000	4	53	mm	100.000000	0	739
Frame#	Time	RPSI			LPSI			L3			STRN			T10			C7			CLAV			RBAK			LBAK			LSHO			LUPA			LAEL			LAOL			LWTS			LWPS			LFRA			LIFD			LHPS			LHTS			RSHO			RUPA			RAEL			RAOL			RWTS			RWPS			RFRA			RIFD			RHTS			RHPS			RBHD			LFHD			RFHD			LBHD			LHIP			RHIP			RASI			LASI			LKNE			LTHI			LANK			LTIP			LTOE			LMT1			LMT5			LHEE			RKNE			RTHI			RANK			RTIP			RTOE			RMT1			RMT5			RHEE			
		X1	Y1	Z1	X2	Y2	Z2	X3	Y3	Z3	X4	Y4	Z4	X5	Y5	Z5	X6	Y6	Z6	X7	Y7	Z7	X8	Y8	Z8	X9	Y9	Z9	X10	Y10	Z10	X11	Y11	Z11	X12	Y12	Z12	X13	Y13	Z13	X14	Y14	Z14	X15	Y15	Z15	X16	Y16	Z16	X17	Y17	Z17	X18	Y18	Z18	X19	Y19	Z19	X20	Y20	Z20	X21	Y21	Z21	X22	Y22	Z22	X23	Y23	Z23	X24	Y24	Z24	X25	Y25	Z25	X26	Y26	Z26	X27	Y27	Z27	X28	Y28	Z28	X29	Y29	Z29	X30	Y30	Z30	X31	Y31	Z31	X32	Y32	Z32	X33	Y33	Z33	X34	Y34	Z34	X35	Y35	Z35	X36	Y36	Z36	X37	Y37	Z37	X38	Y38	Z38	X39	Y39	Z39	X40	Y40	Z40	X41	Y41	Z41	X42	Y42	Z42	X43	Y43	Z43	X44	Y44	Z44	X45	Y45	Z45	X46	Y46	Z46	X47	Y47	Z47	X48	Y48	Z48	X49	Y49	Z49	X50	Y50	Z50	X51	Y51	Z51	X52	Y52	Z52	X53	Y53	Z53	

1	0	-91.92717742919922	1040.1923828125	1306.252685546875	-110.1033020019531	1037.768310546875	1131.67138671875	-95.58645629882812	1086.99072265625	1210.960327148438	148.5185089111328	1287.328491210938	1211.288208007812	-117.8039703369141	1219.5517578125	1202.82470703125	-62.94770812988281	1487.46435546875	1197.960327148438	117.6252975463867	1402.08837890625	1207.642822265625	-125.7601547241211	1348.641357421875	1272.705322265625	-80.2081298828125	1448.7158203125	1096.638916015625	26.43756675720215	1451.836547851562	1027.548706054688	15.66338539123535	1322.51904296875	952.66162109375	42.10759353637695	1106.637939453125	942.5628662109375	-25.0223331451416	1093.260986328125	1024.979125976562	131.9635467529297	869.8177490234375	1017.891052246094	78.12802124023438	856.9837646484375	954.4172973632812	65.08858489990234	997.8960571289062	939.5586547851562	144.9250335693359	685.8336791992188	1044.6689453125	111.0320663452148	775.5377197265625	964.3739624023438	155.1029052734375	787.5040283203125	1019.194274902344	-4.675550937652588	1453.931640625	1376.539306640625	-17.91887664794922	1385.787841796875	1440.851318359375	-45.49563598632812	1120.113037109375	1469.34765625	-23.72932624816895	1098.656127929688	1374.249389648438	102.3508453369141	870.2431640625	1438.343017578125	29.54855728149414	855.2872314453125	1484.672485351562	-30.92215728759766	1040.150146484375	1476.858520507812	95.9844970703125	681.453369140625	1412.74072265625	121.1282424926758	764.5396728515625	1438.362182617188	61.77858352661133	764.4547119140625	1486.729248046875	-18.67484092712402	1666.288452148438	1128.155517578125	132.610107421875	1702.81884765625	1277.060180664062	153.6622619628906	1704.079345703125	1152.651611328125	-32.50072479248047	1658.548583984375	1265.351318359375	-13.00608348846436	966.4087524414062	1041.09375	-28.08439064025879	967.4188842773438	1382.4443359375	97.98506927490234	978.3504638671875	1358.790405273438	103.3777847290039	971.3092651367188	1088.662231445312	13.10908222198486	499.7711486816406	1093.600219726562	-6.721248626708984	642.6943969726562	1054.970825195312	-81.49274444580078	53.23860168457031	1091.354614257812	-44.74528884887695	268.0160827636719	1078.141235351562	124.6243438720703	42.86794662475586	1092.184448242188	76.39902496337891	40.30936431884766	1147.57568359375	20.37317276000977	45.2679443359375	1051.241943359375	-133.0478973388672	48.27658843994141	1167.610229492188	20.35574340820312	518.0406494140625	1354.336791992188	49.64166641235352	788.8106689453125	1387.050048828125	-69.0574951171875	44.25067520141602	1346.69091796875	-4.572859287261963	399.9239807128906	1359.476196289062	146.2632904052734	42.98427963256836	1299.513793945312	84.49028778076172	49.65988922119141	1262.135375976562	55.94550323486328	46.49552536010742	1356.77587890625	-117.8235473632812	47.07136154174805	1291.844604492188	
2	0.01	-91.89963531494141	1040.188354492188	1306.189331054688	-110.0536117553711	1037.774780273438	1131.609497070312	-95.54074096679688	1086.97412109375	1210.891723632812	148.5055999755859	1287.324951171875	1211.239990234375	-117.7887496948242	1219.539184570312	1202.740844726562	-62.9744987487793	1487.445190429688	1197.869873046875	117.6107788085938	1402.082275390625	1207.604125976562	-125.7355728149414	1348.610961914062	1272.619506835938	-80.19370269775391	1448.693481445312	1096.556884765625	26.46573257446289	1451.809204101562	1027.480590820312	15.69295501708984	1322.482177734375	952.6034545898438	42.09891510009766	1106.57373046875	942.587890625	-25.05581474304199	1093.24755859375	1024.977172851562	131.8082427978516	869.7456665039062	1018.055114746094	78.04200744628906	856.921875	954.5524291992188	65.03958129882812	997.8138427734375	939.6369018554688	144.60693359375	685.7595825195312	1044.9501953125	110.8681640625	775.4600830078125	964.5549926757812	154.9358673095703	787.4295043945312	1019.412231445312	-4.696051120758057	1453.94189453125	1376.439086914062	-17.91455078125	1385.796875	1440.773803710938	-45.47739410400391	1120.098510742188	1469.221069335938	-23.72782325744629	1098.668090820312	1374.145385742188	102.4606704711914	870.2919311523438	1438.167358398438	29.64159202575684	855.2778930664062	1484.444946289062	-30.97317123413086	1040.122192382812	1476.7509765625	96.10137176513672	681.5438842773438	1412.500122070312	121.2362442016602	764.5761108398438	1438.160766601562	61.85506057739258	764.4306030273438	1486.510986328125	-18.67573356628418	1666.298950195312	1128.08544921875	132.6430816650391	1702.817260742188	1276.987548828125	153.6692352294922	1704.046630859375	1152.595581054688	-32.49057769775391	1658.553955078125	1265.252319335938	-12.96888828277588	966.396240234375	1041.036499023438	-28.08706474304199	967.4255981445312	1382.386352539062	97.97618103027344	978.3477783203125	1358.761108398438	103.4086380004883	971.2874145507812	1088.628051757812	13.09000015258789	499.7655334472656	1093.57373046875	-6.710192203521729	642.6864624023438	1054.9482421875	-81.47842407226562	53.23348236083984	1091.37841796875	-44.76103591918945	268.008544921875	1078.1171875	124.6121292114258	42.87096405029297	1092.171875	76.39615631103516	40.29766464233398	1147.5849609375	20.37384986877441	45.26586151123047	1051.239501953125	-133.0463104248047	48.27958679199219	1167.61083984375	20.33459854125977	518.0363159179688	1354.324096679688	49.66621017456055	788.7986450195312	1386.986572265625	-69.05906677246094	44.24648284912109	1346.688598632812	-4.587306499481201	399.9223327636719	1359.460327148438	146.2225646972656	42.9675178527832	1299.492431640625	84.48755645751953	49.65943145751953	1262.139404296875	55.94292449951172	46.49087142944336	1356.774291992188	-117.8213119506836	47.06660461425781	1291.843505859375	
3	0.02	-91.86459350585938	1040.181518554688	1306.11181640625	-109.9921493530273	1037.7802734375	1131.53271484375	-95.48756408691406	1086.954345703125	1210.809692382812	148.48876953125	1287.322387695312	1211.181518554688	-117.7674102783203	1219.521728515625	1202.638305664062	-63.00699996948242	1487.421875	1197.760131835938	117.5890655517578	1402.075561523438	1207.55419921875	-125.7063140869141	1348.57373046875	1272.520263671875	-80.18096923828125	1448.6640625	1096.454467773438	26.49066543579102	1451.77490234375	1027.394775390625	15.72299766540527	1322.435180664062	952.5310668945312	42.09282684326172	1106.494995117188	942.61474609375	-25.09426689147949	1093.226928710938	1024.973510742188	131.6493225097656	869.663818359375	1018.240234375	77.94972229003906	856.8449096679688	954.709716796875	64.98475646972656	997.7178344726562	939.7277221679688	144.2287902832031	685.6555786132812	1045.275634765625	110.6917037963867	775.3698120117188	964.7651977539062	154.7336120605469	787.3343505859375	1019.671203613281	-4.720844268798828	1453.964233398438	1376.3251953125	-17.90605735778809	1385.806762695312	1440.676513671875	-45.45202255249023	1120.077880859375	1469.064697265625	-23.73269081115723	1098.68115234375	1374.012451171875	102.5788116455078	870.356201171875	1437.953735351562	29.74407958984375	855.2660522460938	1484.160278320312	-31.04200172424316	1040.084716796875	1476.615356445312	96.24391937255859	681.647216796875	1412.21533203125	121.3895416259766	764.615478515625	1437.90087890625	61.94568634033203	764.4021606445312	1486.237182617188	-18.67751312255859	1666.31396484375	1127.996215820312	132.6794281005859	1702.814575195312	1276.901977539062	153.6839294433594	1704.003784179688	1152.521850585938	-32.48352813720703	1658.560791015625	1265.130981445312	-12.91938304901123	966.3797607421875	1040.967529296875	-28.09276962280273	967.4329833984375	1382.3115234375	97.96778106689453	978.3452758789062	1358.723388671875	103.4469299316406	971.2632446289062	1088.585205078125	13.06631660461426	499.7573547363281	1093.54150390625	-6.697500228881836	642.6768188476562	1054.919555664062	-81.46610260009766	53.23059844970703	1091.402709960938	-44.78168106079102	268.0003051757812	1078.089721679688	124.5983200073242	42.87519073486328	1092.158569335938	76.39178466796875	40.29194641113281	1147.5888671875	20.37442016601562	45.26301193237305	1051.235961914062	-133.0445861816406	48.27983093261719	1167.611206054688	20.30998229980469	518.0333251953125	1354.309692382812	49.69012451171875	788.7847290039062	1386.911743164062	-69.06304168701172	44.24164962768555	1346.687622070312	-4.607597827911377	399.9173889160156	1359.439819335938	146.1641998291016	42.94313049316406	1299.458862304688	84.48377990722656	49.65896606445312	1262.14501953125	55.93996810913086	46.48526000976562	1356.772216796875	-117.8194351196289	47.05906295776367	1291.84375	
4	0.03	-91.8236083984375	1040.171508789062	1306.024536132812	-109.9216613769531	1037.783813476562	1131.444946289062	-95.43019104003906	1086.932495117188	1210.719360351562	148.4684600830078	1287.321899414062	1211.115966796875	-117.7400588989258	1219.499389648438	1202.5224609375	-63.04345321655273	1487.396240234375	1197.6376953125	117.5597076416016	1402.069091796875	1207.494506835938	-125.6734619140625	1348.531860351562	1272.415649414062	-80.17366790771484	1448.628051757812	1096.335571289062	26.50615310668945	1451.735107421875	1027.295166015625	15.74862575531006	1322.379516601562	952.44775390625	42.09251022338867	1106.407104492188	942.6394653320312	-25.13413619995117	1093.198364257812	1024.966918945312	131.5061340332031	869.5792846679688	1018.429870605469	77.86287689208984	856.7568969726562	954.8762817382812	64.93131256103516	997.6151733398438	939.8233032226562	143.8281097412109	685.5265502929688	1045.615234375	110.5224533081055	775.2742919921875	964.9865112304688	154.5135040283203	787.2249145507812	1019.950988769531	-4.750873565673828	1453.9990234375	1376.205200195312	-17.89367866516113	1385.81591796875	1440.5634765625	-45.42000198364258	1120.051025390625	1468.88720703125	-23.74577522277832	1098.693359375	1373.85546875	102.6922073364258	870.4335327148438	1437.712036132812	29.84596633911133	855.2509155273438	1483.832275390625	-31.12662506103516	1040.038208007812	1476.456665039062	96.40739440917969	681.7539672851562	1411.8984375	121.5851745605469	764.6524047851562	1437.59228515625	62.04488754272461	764.370849609375	1485.919921875	-18.68056297302246	1666.334106445312	1127.891479492188	132.7165832519531	1702.810791015625	1276.808715820312	153.7069854736328	1703.9521484375	1152.431640625	-32.48290252685547	1658.569213867188	1264.993408203125	-12.85982036590576	966.3597412109375	1040.890502929688	-28.10305023193359	967.4407348632812	1382.222412109375	97.96158599853516	978.3436889648438	1358.678955078125	103.4892272949219	971.2388305664062	1088.535766601562	13.03946876525879	499.7467041015625	1093.50537109375	-6.683590888977051	642.6663208007812	1054.88623046875	-81.45853424072266	53.23070907592773	1091.423706054688	-44.8058967590332	267.9919128417969	1078.060791015625	124.5839462280273	42.88055038452148	1092.1455078125	76.38585662841797	40.29256820678711	1147.587036132812	20.37434768676758	45.2598876953125	1051.231689453125	-133.0431518554688	48.27688980102539	1167.611083984375	20.28243255615234	518.0311279296875	1354.293823242188	49.7090950012207	788.7703857421875	1386.831298828125	-69.06924438476562	44.23664855957031	1346.688232421875	-4.632810592651367	399.9083557128906	1359.415161132812	146.0883178710938	42.9108772277832	1299.41259765625	84.479248046875	49.65864181518555	1262.152099609375	55.93715286254883	46.47954940795898	1356.769775390625	-117.8179931640625	47.04854583740234	1291.845825195312	
